<mxfile host="drawio-plugin" modified="2022-08-06T09:24:24.380Z" agent="5.0 (Macintosh; Intel Mac OS X 10_15_7) AppleWebKit/537.36 (KHTML, like Gecko) Chrome/98.0.4758.102 Safari/537.36" version="15.5.4" etag="iAlp-jfFMQWi63SLyJq0" type="embed"><diagram id="fzTuF9L11QixEkmFBQXw" name="Page-1"><mxGraphModel dx="863" dy="799" grid="0" gridSize="10" guides="1" tooltips="1" connect="1" arrows="1" fold="1" page="1" pageScale="1" pageWidth="850" pageHeight="1100" background="#EEEEEE" math="0" shadow="0"><root><mxCell id="0"/><mxCell id="1" parent="0"/><mxCell id="12" style="edgeStyle=orthogonalEdgeStyle;curved=1;rounded=1;sketch=1;orthogonalLoop=1;jettySize=auto;html=1;exitX=0.5;exitY=1;exitDx=0;exitDy=0;fontSize=15;fontColor=#1A1A1A;strokeColor=#182E3E;" edge="1" parent="1" source="2" target="3"><mxGeometry relative="1" as="geometry"/></mxCell><mxCell id="2" value="&lt;span style=&quot;font-size: 15px&quot;&gt;getBean？&lt;/span&gt;" style="rounded=0;whiteSpace=wrap;html=1;sketch=1;fontColor=#1A1A1A;strokeColor=#909090;fillColor=#F5AB50;" vertex="1" parent="1"><mxGeometry x="214.75" y="233" width="120" height="60" as="geometry"/></mxCell><mxCell id="9" style="edgeStyle=orthogonalEdgeStyle;curved=1;rounded=1;sketch=1;orthogonalLoop=1;jettySize=auto;html=1;exitX=1;exitY=0.5;exitDx=0;exitDy=0;fontSize=15;fontColor=#1A1A1A;strokeColor=#182E3E;" edge="1" parent="1" source="3" target="4"><mxGeometry relative="1" as="geometry"/></mxCell><mxCell id="13" style="edgeStyle=orthogonalEdgeStyle;curved=1;rounded=1;sketch=1;orthogonalLoop=1;jettySize=auto;html=1;exitX=0.5;exitY=1;exitDx=0;exitDy=0;fontSize=15;fontColor=#1A1A1A;strokeColor=#182E3E;" edge="1" parent="1" source="3" target="5"><mxGeometry relative="1" as="geometry"/></mxCell><mxCell id="3" value="&lt;span style=&quot;font-size: 15px&quot;&gt;DefaultListableBeanFactory&lt;br&gt;初始化BeanDefinition&lt;br&gt;&lt;/span&gt;" style="rounded=0;whiteSpace=wrap;html=1;sketch=1;fontColor=#1A1A1A;strokeColor=#909090;fillColor=#F5AB50;" vertex="1" parent="1"><mxGeometry x="165.5" y="333" width="218.5" height="60" as="geometry"/></mxCell><mxCell id="4" value="&lt;span style=&quot;font-size: 15px&quot;&gt;MutablePropertyValues&lt;br&gt;初始化Bean属性信息&lt;br&gt;&lt;/span&gt;" style="rounded=0;whiteSpace=wrap;html=1;sketch=1;fontColor=#1A1A1A;strokeColor=#909090;fillColor=#F5AB50;" vertex="1" parent="1"><mxGeometry x="476" y="333" width="219" height="60" as="geometry"/></mxCell><mxCell id="14" style="edgeStyle=orthogonalEdgeStyle;curved=1;rounded=1;sketch=1;orthogonalLoop=1;jettySize=auto;html=1;exitX=0.5;exitY=1;exitDx=0;exitDy=0;entryX=0.5;entryY=0;entryDx=0;entryDy=0;fontSize=15;fontColor=#1A1A1A;strokeColor=#182E3E;" edge="1" parent="1" source="5" target="6"><mxGeometry relative="1" as="geometry"/></mxCell><mxCell id="5" value="&lt;span style=&quot;font-size: 15px&quot;&gt;AbstractBeanFactory&lt;br&gt;getBean()&lt;br&gt;&lt;/span&gt;" style="rounded=0;whiteSpace=wrap;html=1;sketch=1;fontColor=#1A1A1A;strokeColor=#909090;fillColor=#F5AB50;" vertex="1" parent="1"><mxGeometry x="165.5" y="428" width="219" height="60" as="geometry"/></mxCell><mxCell id="10" style="edgeStyle=orthogonalEdgeStyle;curved=1;rounded=1;sketch=1;orthogonalLoop=1;jettySize=auto;html=1;exitX=1;exitY=0.5;exitDx=0;exitDy=0;fontSize=15;fontColor=#1A1A1A;strokeColor=#182E3E;" edge="1" parent="1" source="6" target="7"><mxGeometry relative="1" as="geometry"/></mxCell><mxCell id="15" style="edgeStyle=orthogonalEdgeStyle;curved=1;rounded=1;sketch=1;orthogonalLoop=1;jettySize=auto;html=1;exitX=0;exitY=0.5;exitDx=0;exitDy=0;entryX=0;entryY=0.5;entryDx=0;entryDy=0;fontSize=15;fontColor=#1A1A1A;strokeColor=#182E3E;" edge="1" parent="1" source="6" target="2"><mxGeometry relative="1" as="geometry"/></mxCell><mxCell id="6" value="&lt;span style=&quot;font-size: 15px&quot;&gt;AbstractAutowireCapableBeanFactory&lt;br&gt;createBean()&lt;br&gt;&lt;/span&gt;" style="rounded=0;whiteSpace=wrap;html=1;sketch=1;fontColor=#1A1A1A;strokeColor=#909090;fillColor=#F5AB50;" vertex="1" parent="1"><mxGeometry x="138.5" y="523" width="273" height="60" as="geometry"/></mxCell><mxCell id="11" style="edgeStyle=orthogonalEdgeStyle;curved=1;rounded=1;sketch=1;orthogonalLoop=1;jettySize=auto;html=1;exitX=0.5;exitY=1;exitDx=0;exitDy=0;entryX=0.5;entryY=0;entryDx=0;entryDy=0;fontSize=15;fontColor=#1A1A1A;strokeColor=#182E3E;" edge="1" parent="1" source="7" target="8"><mxGeometry relative="1" as="geometry"/></mxCell><mxCell id="7" value="&lt;span style=&quot;font-size: 15px&quot;&gt;CglibSubclassingInstantiationStrategy&lt;br&gt;instantite()&lt;br&gt;&lt;/span&gt;" style="rounded=0;whiteSpace=wrap;html=1;sketch=1;fontColor=#1A1A1A;strokeColor=#909090;fillColor=#F5AB50;" vertex="1" parent="1"><mxGeometry x="476" y="523" width="273" height="60" as="geometry"/></mxCell><mxCell id="8" value="&lt;span style=&quot;font-size: 15px&quot;&gt;AbstractAutowireCapableBeanFactory&lt;br&gt;applyPropertyValues()&lt;br&gt;&lt;/span&gt;" style="rounded=0;whiteSpace=wrap;html=1;sketch=1;fontColor=#1A1A1A;strokeColor=#909090;fillColor=#F5AB50;" vertex="1" parent="1"><mxGeometry x="476" y="634" width="273" height="60" as="geometry"/></mxCell><mxCell id="21" style="edgeStyle=orthogonalEdgeStyle;curved=1;rounded=1;sketch=1;orthogonalLoop=1;jettySize=auto;html=1;exitX=1;exitY=0.5;exitDx=0;exitDy=0;fontSize=15;fontColor=#1A1A1A;strokeColor=#182E3E;" edge="1" parent="1" source="16" target="17"><mxGeometry relative="1" as="geometry"/></mxCell><mxCell id="16" value="初始化BeanDefinition（包括各种属性）" style="rounded=0;whiteSpace=wrap;html=1;sketch=1;fontSize=15;fontColor=#1A1A1A;strokeColor=#909090;fillColor=#F5AB50;" vertex="1" parent="1"><mxGeometry x="246.75" y="109" width="160" height="60" as="geometry"/></mxCell><mxCell id="22" style="edgeStyle=orthogonalEdgeStyle;curved=1;rounded=1;sketch=1;orthogonalLoop=1;jettySize=auto;html=1;exitX=1;exitY=0.5;exitDx=0;exitDy=0;fontSize=15;fontColor=#1A1A1A;strokeColor=#182E3E;" edge="1" parent="1" source="17" target="18"><mxGeometry relative="1" as="geometry"/></mxCell><mxCell id="17" value="调用Cglib实例化Bean" style="rounded=0;whiteSpace=wrap;html=1;sketch=1;fontSize=15;fontColor=#1A1A1A;strokeColor=#909090;fillColor=#F5AB50;" vertex="1" parent="1"><mxGeometry x="443.5" y="109" width="160" height="60" as="geometry"/></mxCell><mxCell id="18" value="填充Bean属性信息" style="rounded=0;whiteSpace=wrap;html=1;sketch=1;fontSize=15;fontColor=#1A1A1A;strokeColor=#909090;fillColor=#F5AB50;" vertex="1" parent="1"><mxGeometry x="640" y="109" width="160" height="60" as="geometry"/></mxCell><mxCell id="20" style="edgeStyle=orthogonalEdgeStyle;curved=1;rounded=1;sketch=1;orthogonalLoop=1;jettySize=auto;html=1;exitX=1;exitY=0.5;exitDx=0;exitDy=0;fontSize=15;fontColor=#1A1A1A;strokeColor=#182E3E;" edge="1" parent="1" source="19" target="16"><mxGeometry relative="1" as="geometry"/></mxCell><mxCell id="19" value="如何获取一个Bean？" style="rounded=0;whiteSpace=wrap;html=1;sketch=1;fontSize=15;fontColor=#1A1A1A;strokeColor=#909090;fillColor=#F5AB50;" vertex="1" parent="1"><mxGeometry x="50" y="107" width="160" height="60" as="geometry"/></mxCell></root></mxGraphModel></diagram></mxfile>